solid CATIA STL
  facet normal  0.000000e+000 -1.000000e+000  -0.000000e+000
    outer loop
      vertex -2.013310e+002  7.494652e+001  4.503059e+002
      vertex -2.236189e+002  7.494652e+001  4.503059e+002
      vertex -2.394313e+002  7.494652e+001  4.368648e+002
    endloop
  endfacet
  facet normal  0.000000e+000 -1.000000e+000  0.000000e+000
    outer loop
      vertex -2.013310e+002  7.494652e+001  4.503059e+002
      vertex -2.394313e+002  7.494652e+001  4.368648e+002
      vertex -2.394313e+002  7.494652e+001  3.969875e+002
    endloop
  endfacet
  facet normal  0.000000e+000 -1.000000e+000  0.000000e+000
    outer loop
      vertex -2.013310e+002  7.494652e+001  4.503059e+002
      vertex -2.394313e+002  7.494652e+001  3.969875e+002
      vertex -1.998950e+002  7.494652e+001  3.680849e+002
    endloop
  endfacet
  facet normal  0.000000e+000 -1.000000e+000  0.000000e+000
    outer loop
      vertex -2.013310e+002  7.494652e+001  4.503059e+002
      vertex -1.998950e+002  7.494652e+001  3.680849e+002
      vertex -1.760038e+002  7.494652e+001  4.907802e+002
    endloop
  endfacet
  facet normal  0.000000e+000 -1.000000e+000  -0.000000e+000
    outer loop
      vertex -1.590645e+002  7.494652e+001  5.178502e+002
      vertex -1.760038e+002  7.494652e+001  4.907802e+002
      vertex -1.998950e+002  7.494652e+001  3.680849e+002
    endloop
  endfacet
  facet normal  0.000000e+000 -1.000000e+000  0.000000e+000
    outer loop
      vertex -1.590645e+002  7.494652e+001  5.178502e+002
      vertex -1.998950e+002  7.494652e+001  3.680849e+002
      vertex -1.875598e+002  7.494652e+001  3.785877e+002
    endloop
  endfacet
  facet normal  0.000000e+000 -1.000000e+000  0.000000e+000
    outer loop
      vertex -1.590645e+002  7.494652e+001  5.178502e+002
      vertex -1.875598e+002  7.494652e+001  3.785877e+002
      vertex -1.742818e+002  7.494652e+001  3.878699e+002
    endloop
  endfacet
  facet normal  0.000000e+000 -1.000000e+000  0.000000e+000
    outer loop
      vertex -1.590645e+002  7.494652e+001  5.178502e+002
      vertex -1.742818e+002  7.494652e+001  3.878699e+002
      vertex -1.601812e+002  7.494652e+001  3.958474e+002
    endloop
  endfacet
  facet normal  0.000000e+000 -1.000000e+000  0.000000e+000
    outer loop
      vertex -1.590645e+002  7.494652e+001  5.178502e+002
      vertex -1.601812e+002  7.494652e+001  3.958474e+002
      vertex -1.453860e+002  7.494652e+001  4.024479e+002
    endloop
  endfacet
  facet normal  0.000000e+000 -1.000000e+000  0.000000e+000
    outer loop
      vertex -1.590645e+002  7.494652e+001  5.178502e+002
      vertex -1.453860e+002  7.494652e+001  4.024479e+002
      vertex -1.300301e+002  7.494652e+001  4.076116e+002
    endloop
  endfacet
  facet normal  0.000000e+000 -1.000000e+000  0.000000e+000
    outer loop
      vertex -1.590645e+002  7.494652e+001  5.178502e+002
      vertex -1.300301e+002  7.494652e+001  4.076116e+002
      vertex -1.142528e+002  7.494652e+001  4.112916e+002
    endloop
  endfacet
  facet normal  0.000000e+000 -1.000000e+000  0.000000e+000
    outer loop
      vertex -1.590645e+002  7.494652e+001  5.178502e+002
      vertex -1.142528e+002  7.494652e+001  4.112916e+002
      vertex -9.819708e+001  7.494652e+001  4.134546e+002
    endloop
  endfacet
  facet normal  0.000000e+000 -1.000000e+000  0.000000e+000
    outer loop
      vertex -1.590645e+002  7.494652e+001  5.178502e+002
      vertex -9.819708e+001  7.494652e+001  4.134546e+002
      vertex -2.493034e+001  7.494652e+001  4.197928e+002
    endloop
  endfacet
  facet normal -5.901588e-001  -0.000000e+000 -8.072872e-001
    outer loop
      vertex -2.394313e+002  7.494652e+001  3.969875e+002
      vertex -2.394313e+002  9.904597e+001  3.969875e+002
      vertex -1.998950e+002  7.494652e+001  3.680849e+002
    endloop
  endfacet
  facet normal -5.901588e-001  0.000000e+000 -8.072872e-001
    outer loop
      vertex -1.998950e+002  7.494652e+001  3.680849e+002
      vertex -2.394313e+002  9.904597e+001  3.969875e+002
      vertex -1.998950e+002  9.904597e+001  3.680849e+002
    endloop
  endfacet
  facet normal  0.000000e+000  0.000000e+000  1.000000e+000
    outer loop
      vertex -2.660500e+002  6.100000e+001  2.894871e+002
      vertex -2.660500e+002  9.904597e+001  2.894871e+002
      vertex -2.820324e+002  6.100000e+001  2.894871e+002
    endloop
  endfacet
  facet normal  0.000000e+000  0.000000e+000  1.000000e+000
    outer loop
      vertex -2.820324e+002  6.100000e+001  2.894871e+002
      vertex -2.660500e+002  9.904597e+001  2.894871e+002
      vertex -2.820324e+002  9.904597e+001  2.894871e+002
    endloop
  endfacet
  facet normal -7.743742e-001  0.000000e+000  6.327277e-001
    outer loop
      vertex -2.153088e+002  6.100000e+001  3.515875e+002
      vertex -2.153088e+002  9.904597e+001  3.515875e+002
      vertex -2.660500e+002  6.100000e+001  2.894871e+002
    endloop
  endfacet
  facet normal -7.743742e-001  0.000000e+000  6.327277e-001
    outer loop
      vertex -2.660500e+002  6.100000e+001  2.894871e+002
      vertex -2.153088e+002  9.904597e+001  3.515875e+002
      vertex -2.660500e+002  9.904597e+001  2.894871e+002
    endloop
  endfacet
  facet normal -2.271442e-001  6.445758e-003  9.738398e-001
    outer loop
      vertex -1.142528e+002  7.494652e+001  4.112916e+002
      vertex -1.300301e+002  7.494652e+001  4.076116e+002
      vertex -1.279273e+002  6.100000e+001  4.081944e+002
    endloop
  endfacet
  facet normal -3.034904e-001 -5.944284e-003  9.528160e-001
    outer loop
      vertex -1.423254e+002  6.100000e+001  4.036083e+002
      vertex -1.279273e+002  6.100000e+001  4.081944e+002
      vertex -1.300301e+002  7.494652e+001  4.076116e+002
    endloop
  endfacet
  facet normal -3.187166e-001  8.916640e-003  9.478081e-001
    outer loop
      vertex -1.300301e+002  7.494652e+001  4.076116e+002
      vertex -1.453860e+002  7.494652e+001  4.024479e+002
      vertex -1.423254e+002  6.100000e+001  4.036083e+002
    endloop
  endfacet
  facet normal -3.868107e-001 -8.163651e-003  9.221230e-001
    outer loop
      vertex -1.562600e+002  6.100000e+001  3.977630e+002
      vertex -1.423254e+002  6.100000e+001  4.036083e+002
      vertex -1.453860e+002  7.494652e+001  4.024479e+002
    endloop
  endfacet
  facet normal -4.073919e-001  1.088457e-002  9.131886e-001
    outer loop
      vertex -1.453860e+002  7.494652e+001  4.024479e+002
      vertex -1.601812e+002  7.494652e+001  3.958474e+002
      vertex -1.562600e+002  6.100000e+001  3.977630e+002
    endloop
  endfacet
  facet normal -4.670788e-001 -9.884352e-003  8.841604e-001
    outer loop
      vertex -1.696211e+002  6.100000e+001  3.907047e+002
      vertex -1.562600e+002  6.100000e+001  3.977630e+002
      vertex -1.601812e+002  7.494652e+001  3.958474e+002
    endloop
  endfacet
  facet normal -4.923774e-001  1.235234e-002  8.702942e-001
    outer loop
      vertex -1.601812e+002  7.494652e+001  3.958474e+002
      vertex -1.742818e+002  7.494652e+001  3.878699e+002
      vertex -1.696211e+002  6.100000e+001  3.907047e+002
    endloop
  endfacet
  facet normal -5.436626e-001 -1.110033e-002  8.392305e-001
    outer loop
      vertex -1.823034e+002  6.100000e+001  3.824890e+002
      vertex -1.696211e+002  6.100000e+001  3.907047e+002
      vertex -1.742818e+002  7.494652e+001  3.878699e+002
    endloop
  endfacet
  facet normal -5.728975e-001  1.332002e-002  8.195187e-001
    outer loop
      vertex -1.742818e+002  7.494652e+001  3.878699e+002
      vertex -1.875598e+002  7.494652e+001  3.785877e+002
      vertex -1.823034e+002  6.100000e+001  3.824890e+002
    endloop
  endfacet
  facet normal -6.159623e-001 -1.181544e-002  7.876870e-001
    outer loop
      vertex -1.942068e+002  6.100000e+001  3.731806e+002
      vertex -1.823034e+002  6.100000e+001  3.824890e+002
      vertex -1.875598e+002  7.494652e+001  3.785877e+002
    endloop
  endfacet
  facet normal -7.076355e-001  0.000000e+000  7.065777e-001
    outer loop
      vertex -1.998950e+002  7.494652e+001  3.680849e+002
      vertex -1.998950e+002  9.904597e+001  3.680849e+002
      vertex -2.078758e+002  9.904597e+001  3.600921e+002
    endloop
  endfacet
  facet normal -7.033902e-001  2.805687e-003  7.107984e-001
    outer loop
      vertex -1.998950e+002  7.494652e+001  3.680849e+002
      vertex -2.078758e+002  9.904597e+001  3.600921e+002
      vertex -2.052377e+002  6.100000e+001  3.628530e+002
    endloop
  endfacet
  facet normal -6.834074e-001 -1.202950e-002  7.299381e-001
    outer loop
      vertex -1.998950e+002  7.494652e+001  3.680849e+002
      vertex -2.052377e+002  6.100000e+001  3.628530e+002
      vertex -1.942068e+002  6.100000e+001  3.731806e+002
    endloop
  endfacet
  facet normal -6.482283e-001  1.378499e-002  7.613212e-001
    outer loop
      vertex -1.998950e+002  7.494652e+001  3.680849e+002
      vertex -1.942068e+002  6.100000e+001  3.731806e+002
      vertex -1.875598e+002  7.494652e+001  3.785877e+002
    endloop
  endfacet
  facet normal -1.303354e-001  0.000000e+000  9.914700e-001
    outer loop
      vertex -9.819708e+001  6.100000e+001  4.134546e+002
      vertex -9.819708e+001  7.494652e+001  4.134546e+002
      vertex -1.131791e+002  6.100000e+001  4.114851e+002
    endloop
  endfacet
  facet normal -1.335127e-001  3.473827e-003  9.910410e-001
    outer loop
      vertex -1.131791e+002  6.100000e+001  4.114851e+002
      vertex -9.819708e+001  7.494652e+001  4.134546e+002
      vertex -1.142528e+002  7.494652e+001  4.112916e+002
    endloop
  endfacet
  facet normal -2.177719e-001 -3.222208e-003  9.759943e-001
    outer loop
      vertex -1.131791e+002  6.100000e+001  4.114851e+002
      vertex -1.142528e+002  7.494652e+001  4.112916e+002
      vertex -1.279273e+002  6.100000e+001  4.081944e+002
    endloop
  endfacet
  facet normal -7.529421e-001 -4.456460e-003  6.580716e-001
    outer loop
      vertex -2.078758e+002  9.904597e+001  3.600921e+002
      vertex -2.153088e+002  9.904597e+001  3.515875e+002
      vertex -2.052377e+002  6.100000e+001  3.628530e+002
    endloop
  endfacet
  facet normal -7.455183e-001  0.000000e+000  6.664852e-001
    outer loop
      vertex -2.052377e+002  6.100000e+001  3.628530e+002
      vertex -2.153088e+002  9.904597e+001  3.515875e+002
      vertex -2.153088e+002  6.100000e+001  3.515875e+002
    endloop
  endfacet
  facet normal -8.618701e-002  0.000000e+000  9.962790e-001
    outer loop
      vertex  8.632019e+000  7.494652e+001  4.226963e+002
      vertex -2.493034e+001  7.494652e+001  4.197928e+002
      vertex  8.632019e+000  6.100000e+001  4.226963e+002
    endloop
  endfacet
  facet normal -8.618743e-002 -1.011666e-006  9.962790e-001
    outer loop
      vertex  8.632019e+000  6.100000e+001  4.226963e+002
      vertex -2.493034e+001  7.494652e+001  4.197928e+002
      vertex -9.819708e+001  7.494652e+001  4.134546e+002
    endloop
  endfacet
  facet normal -8.618729e-002  0.000000e+000  9.962789e-001
    outer loop
      vertex  8.632019e+000  6.100000e+001  4.226963e+002
      vertex -9.819708e+001  7.494652e+001  4.134546e+002
      vertex -9.819708e+001  6.100000e+001  4.134546e+002
    endloop
  endfacet
  facet normal -7.743745e-001  0.000000e+000  6.327276e-001
    outer loop
      vertex -2.820324e+002  6.100000e+001  2.894871e+002
      vertex -2.820324e+002  9.904597e+001  2.894871e+002
      vertex -3.008196e+002  6.100000e+001  2.664940e+002
    endloop
  endfacet
  facet normal -7.743745e-001  0.000000e+000  6.327276e-001
    outer loop
      vertex -3.008196e+002  6.100000e+001  2.664940e+002
      vertex -2.820324e+002  9.904597e+001  2.894871e+002
      vertex -3.008196e+002  9.904597e+001  2.664940e+002
    endloop
  endfacet
  facet normal  5.901598e-001  0.000000e+000  8.072864e-001
    outer loop
      vertex -3.098190e+002  0.000000e+000  2.730729e+002
      vertex -3.008196e+002 -4.531842e-011  2.664940e+002
      vertex -3.098190e+002  9.904597e+001  2.730729e+002
    endloop
  endfacet
  facet normal  5.901598e-001  0.000000e+000  8.072864e-001
    outer loop
      vertex -3.098190e+002  9.904597e+001  2.730729e+002
      vertex -3.008196e+002 -4.531842e-011  2.664940e+002
      vertex -3.008196e+002  6.100000e+001  2.664940e+002
    endloop
  endfacet
  facet normal  5.901598e-001  -0.000000e+000  8.072864e-001
    outer loop
      vertex -3.098190e+002  9.904597e+001  2.730729e+002
      vertex -3.008196e+002  6.100000e+001  2.664940e+002
      vertex -3.008196e+002  9.904597e+001  2.664940e+002
    endloop
  endfacet
  facet normal  0.000000e+000 -1.000000e+000  0.000000e+000
    outer loop
      vertex -2.394313e+002  9.904597e+001  3.693573e+002
      vertex -3.098190e+002  9.904597e+001  2.730729e+002
      vertex -3.008196e+002  9.904597e+001  2.664940e+002
    endloop
  endfacet
  facet normal  0.000000e+000 -1.000000e+000  0.000000e+000
    outer loop
      vertex -2.394313e+002  9.904597e+001  3.693573e+002
      vertex -3.008196e+002  9.904597e+001  2.664940e+002
      vertex -2.820324e+002  9.904597e+001  2.894871e+002
    endloop
  endfacet
  facet normal  0.000000e+000 -1.000000e+000  0.000000e+000
    outer loop
      vertex -2.394313e+002  9.904597e+001  3.693573e+002
      vertex -2.820324e+002  9.904597e+001  2.894871e+002
      vertex -2.660500e+002  9.904597e+001  2.894871e+002
    endloop
  endfacet
  facet normal  0.000000e+000 -1.000000e+000  0.000000e+000
    outer loop
      vertex -2.394313e+002  9.904597e+001  3.693573e+002
      vertex -2.660500e+002  9.904597e+001  2.894871e+002
      vertex -2.153088e+002  9.904597e+001  3.515875e+002
    endloop
  endfacet
  facet normal  0.000000e+000 -1.000000e+000  0.000000e+000
    outer loop
      vertex -2.394313e+002  9.904597e+001  3.969875e+002
      vertex -2.394313e+002  9.904597e+001  3.693573e+002
      vertex -2.153088e+002  9.904597e+001  3.515875e+002
    endloop
  endfacet
  facet normal  0.000000e+000 -1.000000e+000  0.000000e+000
    outer loop
      vertex -2.394313e+002  9.904597e+001  3.969875e+002
      vertex -2.153088e+002  9.904597e+001  3.515875e+002
      vertex -2.078758e+002  9.904597e+001  3.600921e+002
    endloop
  endfacet
  facet normal  0.000000e+000 -1.000000e+000  0.000000e+000
    outer loop
      vertex -2.394313e+002  9.904597e+001  3.969875e+002
      vertex -2.078758e+002  9.904597e+001  3.600921e+002
      vertex -1.998950e+002  9.904597e+001  3.680849e+002
    endloop
  endfacet
  facet normal  8.072870e-001  0.000000e+000 -5.901591e-001
    outer loop
      vertex -2.394313e+002  0.000000e+000  3.693573e+002
      vertex -3.098190e+002  0.000000e+000  2.730729e+002
      vertex -2.394313e+002  9.904597e+001  3.693573e+002
    endloop
  endfacet
  facet normal  8.072870e-001  0.000000e+000 -5.901591e-001
    outer loop
      vertex -2.394313e+002  9.904597e+001  3.693573e+002
      vertex -3.098190e+002  0.000000e+000  2.730729e+002
      vertex -3.098190e+002  9.904597e+001  2.730729e+002
    endloop
  endfacet
  facet normal  1.000000e+000  0.000000e+000  0.000000e+000
    outer loop
      vertex -2.394313e+002  9.904597e+001  3.693573e+002
      vertex -2.394313e+002  9.904597e+001  3.969875e+002
      vertex -2.394313e+002  0.000000e+000  3.693573e+002
    endloop
  endfacet
  facet normal  1.000000e+000  0.000000e+000  0.000000e+000
    outer loop
      vertex -2.394313e+002  0.000000e+000  3.693573e+002
      vertex -2.394313e+002  9.904597e+001  3.969875e+002
      vertex -2.394313e+002  7.494652e+001  3.969875e+002
    endloop
  endfacet
  facet normal  1.000000e+000  0.000000e+000  0.000000e+000
    outer loop
      vertex -2.394313e+002  0.000000e+000  3.693573e+002
      vertex -2.394313e+002  7.494652e+001  3.969875e+002
      vertex -2.394313e+002  0.000000e+000  4.368648e+002
    endloop
  endfacet
  facet normal  9.999999e-001  -0.000000e+000  0.000000e+000
    outer loop
      vertex -2.394313e+002  0.000000e+000  4.368648e+002
      vertex -2.394313e+002  7.494652e+001  3.969875e+002
      vertex -2.394313e+002  7.494652e+001  4.368648e+002
    endloop
  endfacet
  facet normal  6.476625e-001  0.000000e+000 -7.619274e-001
    outer loop
      vertex -2.236189e+002  0.000000e+000  4.503059e+002
      vertex -2.394313e+002  0.000000e+000  4.368648e+002
      vertex -2.236189e+002  7.494652e+001  4.503059e+002
    endloop
  endfacet
  facet normal  6.476625e-001  0.000000e+000 -7.619274e-001
    outer loop
      vertex -2.236189e+002  7.494652e+001  4.503059e+002
      vertex -2.394313e+002  0.000000e+000  4.368648e+002
      vertex -2.394313e+002  7.494652e+001  4.368648e+002
    endloop
  endfacet
  facet normal  0.000000e+000  0.000000e+000 -1.000000e+000
    outer loop
      vertex -2.013310e+002  0.000000e+000  4.503059e+002
      vertex -2.236189e+002  0.000000e+000  4.503059e+002
      vertex -2.013310e+002  7.494652e+001  4.503059e+002
    endloop
  endfacet
  facet normal  -0.000000e+000  0.000000e+000 -1.000000e+000
    outer loop
      vertex -2.013310e+002  7.494652e+001  4.503059e+002
      vertex -2.236189e+002  0.000000e+000  4.503059e+002
      vertex -2.236189e+002  7.494652e+001  4.503059e+002
    endloop
  endfacet
  facet normal  8.477092e-001  0.000000e+000 -5.304612e-001
    outer loop
      vertex -1.760038e+002  0.000000e+000  4.907802e+002
      vertex -2.013310e+002  0.000000e+000  4.503059e+002
      vertex -1.760038e+002  7.494652e+001  4.907802e+002
    endloop
  endfacet
  facet normal  8.477092e-001  0.000000e+000 -5.304612e-001
    outer loop
      vertex -1.760038e+002  7.494652e+001  4.907802e+002
      vertex -2.013310e+002  0.000000e+000  4.503059e+002
      vertex -2.013310e+002  7.494652e+001  4.503059e+002
    endloop
  endfacet
  facet normal  0.000000e+000  1.000000e+000  0.000000e+000
    outer loop
      vertex -2.013310e+002 -7.494652e+001  4.503059e+002
      vertex -1.760038e+002 -7.494652e+001  4.907802e+002
      vertex -1.998950e+002 -7.494652e+001  3.680849e+002
    endloop
  endfacet
  facet normal  0.000000e+000  1.000000e+000  0.000000e+000
    outer loop
      vertex -2.013310e+002 -7.494652e+001  4.503059e+002
      vertex -1.998950e+002 -7.494652e+001  3.680849e+002
      vertex -2.394313e+002 -7.494652e+001  3.969875e+002
    endloop
  endfacet
  facet normal  0.000000e+000  1.000000e+000  0.000000e+000
    outer loop
      vertex -2.013310e+002 -7.494652e+001  4.503059e+002
      vertex -2.394313e+002 -7.494652e+001  3.969875e+002
      vertex -2.394313e+002 -7.494652e+001  4.368648e+002
    endloop
  endfacet
  facet normal  0.000000e+000  1.000000e+000  0.000000e+000
    outer loop
      vertex -2.013310e+002 -7.494652e+001  4.503059e+002
      vertex -2.394313e+002 -7.494652e+001  4.368648e+002
      vertex -2.236189e+002 -7.494652e+001  4.503059e+002
    endloop
  endfacet
  facet normal  0.000000e+000  1.000000e+000  0.000000e+000
    outer loop
      vertex -1.590645e+002 -7.494652e+001  5.178502e+002
      vertex -2.493034e+001 -7.494652e+001  4.197928e+002
      vertex -9.819708e+001 -7.494652e+001  4.134546e+002
    endloop
  endfacet
  facet normal  0.000000e+000  1.000000e+000  0.000000e+000
    outer loop
      vertex -1.590645e+002 -7.494652e+001  5.178502e+002
      vertex -9.819708e+001 -7.494652e+001  4.134546e+002
      vertex -1.142528e+002 -7.494652e+001  4.112916e+002
    endloop
  endfacet
  facet normal  0.000000e+000  1.000000e+000  0.000000e+000
    outer loop
      vertex -1.590645e+002 -7.494652e+001  5.178502e+002
      vertex -1.142528e+002 -7.494652e+001  4.112916e+002
      vertex -1.300301e+002 -7.494652e+001  4.076116e+002
    endloop
  endfacet
  facet normal  0.000000e+000  1.000000e+000  0.000000e+000
    outer loop
      vertex -1.590645e+002 -7.494652e+001  5.178502e+002
      vertex -1.300301e+002 -7.494652e+001  4.076116e+002
      vertex -1.453860e+002 -7.494652e+001  4.024479e+002
    endloop
  endfacet
  facet normal  0.000000e+000  9.999999e-001  0.000000e+000
    outer loop
      vertex -1.590645e+002 -7.494652e+001  5.178502e+002
      vertex -1.453860e+002 -7.494652e+001  4.024479e+002
      vertex -1.601812e+002 -7.494652e+001  3.958474e+002
    endloop
  endfacet
  facet normal  0.000000e+000  1.000000e+000  -0.000000e+000
    outer loop
      vertex -1.590645e+002 -7.494652e+001  5.178502e+002
      vertex -1.601812e+002 -7.494652e+001  3.958474e+002
      vertex -1.742818e+002 -7.494652e+001  3.878699e+002
    endloop
  endfacet
  facet normal  0.000000e+000  1.000000e+000  -0.000000e+000
    outer loop
      vertex -1.590645e+002 -7.494652e+001  5.178502e+002
      vertex -1.742818e+002 -7.494652e+001  3.878699e+002
      vertex -1.875598e+002 -7.494652e+001  3.785877e+002
    endloop
  endfacet
  facet normal  0.000000e+000  1.000000e+000  -0.000000e+000
    outer loop
      vertex -1.590645e+002 -7.494652e+001  5.178502e+002
      vertex -1.875598e+002 -7.494652e+001  3.785877e+002
      vertex -1.998950e+002 -7.494652e+001  3.680849e+002
    endloop
  endfacet
  facet normal  0.000000e+000  1.000000e+000  0.000000e+000
    outer loop
      vertex -1.590645e+002 -7.494652e+001  5.178502e+002
      vertex -1.998950e+002 -7.494652e+001  3.680849e+002
      vertex -1.760038e+002 -7.494652e+001  4.907802e+002
    endloop
  endfacet
  facet normal -5.901588e-001  0.000000e+000 -8.072872e-001
    outer loop
      vertex -2.394313e+002 -7.494652e+001  3.969875e+002
      vertex -1.998950e+002 -7.494652e+001  3.680849e+002
      vertex -2.394313e+002 -9.904597e+001  3.969875e+002
    endloop
  endfacet
  facet normal -5.901588e-001  0.000000e+000 -8.072872e-001
    outer loop
      vertex -2.394313e+002 -9.904597e+001  3.969875e+002
      vertex -1.998950e+002 -7.494652e+001  3.680849e+002
      vertex -1.998950e+002 -9.904597e+001  3.680849e+002
    endloop
  endfacet
  facet normal  -0.000000e+000  0.000000e+000  1.000000e+000
    outer loop
      vertex -2.660500e+002 -6.100000e+001  2.894871e+002
      vertex -2.820324e+002 -6.100000e+001  2.894871e+002
      vertex -2.660500e+002 -9.904597e+001  2.894871e+002
    endloop
  endfacet
  facet normal  0.000000e+000  0.000000e+000  1.000000e+000
    outer loop
      vertex -2.660500e+002 -9.904597e+001  2.894871e+002
      vertex -2.820324e+002 -6.100000e+001  2.894871e+002
      vertex -2.820324e+002 -9.904597e+001  2.894871e+002
    endloop
  endfacet
  facet normal -7.743742e-001  0.000000e+000  6.327277e-001
    outer loop
      vertex -2.153088e+002 -6.100000e+001  3.515875e+002
      vertex -2.660500e+002 -6.100000e+001  2.894871e+002
      vertex -2.153088e+002 -9.904597e+001  3.515875e+002
    endloop
  endfacet
  facet normal -7.743742e-001  0.000000e+000  6.327277e-001
    outer loop
      vertex -2.153088e+002 -9.904597e+001  3.515875e+002
      vertex -2.660500e+002 -6.100000e+001  2.894871e+002
      vertex -2.660500e+002 -9.904597e+001  2.894871e+002
    endloop
  endfacet
  facet normal -2.271442e-001 -6.445755e-003  9.738398e-001
    outer loop
      vertex -1.142528e+002 -7.494652e+001  4.112916e+002
      vertex -1.279273e+002 -6.100000e+001  4.081944e+002
      vertex -1.300301e+002 -7.494652e+001  4.076116e+002
    endloop
  endfacet
  facet normal -3.034904e-001  5.944284e-003  9.528160e-001
    outer loop
      vertex -1.300301e+002 -7.494652e+001  4.076116e+002
      vertex -1.279273e+002 -6.100000e+001  4.081944e+002
      vertex -1.423254e+002 -6.100000e+001  4.036083e+002
    endloop
  endfacet
  facet normal -3.187166e-001 -8.916640e-003  9.478081e-001
    outer loop
      vertex -1.300301e+002 -7.494652e+001  4.076116e+002
      vertex -1.423254e+002 -6.100000e+001  4.036083e+002
      vertex -1.453860e+002 -7.494652e+001  4.024479e+002
    endloop
  endfacet
  facet normal -3.868107e-001  8.163651e-003  9.221230e-001
    outer loop
      vertex -1.453860e+002 -7.494652e+001  4.024479e+002
      vertex -1.423254e+002 -6.100000e+001  4.036083e+002
      vertex -1.562600e+002 -6.100000e+001  3.977630e+002
    endloop
  endfacet
  facet normal -4.073919e-001 -1.088458e-002  9.131886e-001
    outer loop
      vertex -1.453860e+002 -7.494652e+001  4.024479e+002
      vertex -1.562600e+002 -6.100000e+001  3.977630e+002
      vertex -1.601812e+002 -7.494652e+001  3.958474e+002
    endloop
  endfacet
  facet normal -4.670788e-001  9.884352e-003  8.841604e-001
    outer loop
      vertex -1.601812e+002 -7.494652e+001  3.958474e+002
      vertex -1.562600e+002 -6.100000e+001  3.977630e+002
      vertex -1.696211e+002 -6.100000e+001  3.907047e+002
    endloop
  endfacet
  facet normal -4.923773e-001 -1.235235e-002  8.702942e-001
    outer loop
      vertex -1.601812e+002 -7.494652e+001  3.958474e+002
      vertex -1.696211e+002 -6.100000e+001  3.907047e+002
      vertex -1.742818e+002 -7.494652e+001  3.878699e+002
    endloop
  endfacet
  facet normal -5.436626e-001  1.110033e-002  8.392305e-001
    outer loop
      vertex -1.742818e+002 -7.494652e+001  3.878699e+002
      vertex -1.696211e+002 -6.100000e+001  3.907047e+002
      vertex -1.823034e+002 -6.100000e+001  3.824890e+002
    endloop
  endfacet
  facet normal -5.728975e-001 -1.332002e-002  8.195187e-001
    outer loop
      vertex -1.742818e+002 -7.494652e+001  3.878699e+002
      vertex -1.823034e+002 -6.100000e+001  3.824890e+002
      vertex -1.875598e+002 -7.494652e+001  3.785877e+002
    endloop
  endfacet
  facet normal -6.159623e-001  1.181544e-002  7.876870e-001
    outer loop
      vertex -1.875598e+002 -7.494652e+001  3.785877e+002
      vertex -1.823034e+002 -6.100000e+001  3.824890e+002
      vertex -1.942068e+002 -6.100000e+001  3.731806e+002
    endloop
  endfacet
  facet normal -6.482283e-001 -1.378498e-002  7.613212e-001
    outer loop
      vertex -1.998950e+002 -7.494652e+001  3.680849e+002
      vertex -1.875598e+002 -7.494652e+001  3.785877e+002
      vertex -1.942068e+002 -6.100000e+001  3.731806e+002
    endloop
  endfacet
  facet normal -6.834074e-001  1.202950e-002  7.299381e-001
    outer loop
      vertex -1.998950e+002 -7.494652e+001  3.680849e+002
      vertex -1.942068e+002 -6.100000e+001  3.731806e+002
      vertex -2.052377e+002 -6.100000e+001  3.628530e+002
    endloop
  endfacet
  facet normal -7.033902e-001 -2.805687e-003  7.107984e-001
    outer loop
      vertex -1.998950e+002 -7.494652e+001  3.680849e+002
      vertex -2.052377e+002 -6.100000e+001  3.628530e+002
      vertex -2.078758e+002 -9.904597e+001  3.600921e+002
    endloop
  endfacet
  facet normal -7.076355e-001  0.000000e+000  7.065777e-001
    outer loop
      vertex -1.998950e+002 -7.494652e+001  3.680849e+002
      vertex -2.078758e+002 -9.904597e+001  3.600921e+002
      vertex -1.998950e+002 -9.904597e+001  3.680849e+002
    endloop
  endfacet
  facet normal -1.335135e-001  0.000000e+000  9.910470e-001
    outer loop
      vertex -9.819708e+001 -7.494652e+001  4.134546e+002
      vertex -9.819708e+001 -6.100000e+001  4.134546e+002
      vertex -1.142528e+002 -7.494652e+001  4.112916e+002
    endloop
  endfacet
  facet normal -1.303345e-001 -3.724383e-003  9.914631e-001
    outer loop
      vertex -1.142528e+002 -7.494652e+001  4.112916e+002
      vertex -9.819708e+001 -6.100000e+001  4.134546e+002
      vertex -1.131791e+002 -6.100000e+001  4.114851e+002
    endloop
  endfacet
  facet normal -2.177719e-001  3.222206e-003  9.759943e-001
    outer loop
      vertex -1.142528e+002 -7.494652e+001  4.112916e+002
      vertex -1.131791e+002 -6.100000e+001  4.114851e+002
      vertex -1.279273e+002 -6.100000e+001  4.081944e+002
    endloop
  endfacet
  facet normal -7.455183e-001  0.000000e+000  6.664852e-001
    outer loop
      vertex -2.153088e+002 -6.100000e+001  3.515875e+002
      vertex -2.153088e+002 -9.904597e+001  3.515875e+002
      vertex -2.052377e+002 -6.100000e+001  3.628530e+002
    endloop
  endfacet
  facet normal -7.529423e-001  4.456461e-003  6.580716e-001
    outer loop
      vertex -2.052377e+002 -6.100000e+001  3.628530e+002
      vertex -2.153088e+002 -9.904597e+001  3.515875e+002
      vertex -2.078758e+002 -9.904597e+001  3.600921e+002
    endloop
  endfacet
  facet normal -8.618729e-002  0.000000e+000  9.962789e-001
    outer loop
      vertex -9.819708e+001 -6.100000e+001  4.134546e+002
      vertex -9.819708e+001 -7.494652e+001  4.134546e+002
      vertex  8.632019e+000 -6.100000e+001  4.226963e+002
    endloop
  endfacet
  facet normal -8.618743e-002  1.011666e-006  9.962790e-001
    outer loop
      vertex  8.632019e+000 -6.100000e+001  4.226963e+002
      vertex -9.819708e+001 -7.494652e+001  4.134546e+002
      vertex -2.493034e+001 -7.494652e+001  4.197928e+002
    endloop
  endfacet
  facet normal -8.618701e-002  0.000000e+000  9.962790e-001
    outer loop
      vertex  8.632019e+000 -6.100000e+001  4.226963e+002
      vertex -2.493034e+001 -7.494652e+001  4.197928e+002
      vertex  8.632019e+000 -7.494652e+001  4.226963e+002
    endloop
  endfacet
  facet normal -7.743745e-001  0.000000e+000  6.327276e-001
    outer loop
      vertex -2.820324e+002 -6.100000e+001  2.894871e+002
      vertex -3.008196e+002 -6.100000e+001  2.664940e+002
      vertex -2.820324e+002 -9.904597e+001  2.894871e+002
    endloop
  endfacet
  facet normal -7.743745e-001  0.000000e+000  6.327276e-001
    outer loop
      vertex -2.820324e+002 -9.904597e+001  2.894871e+002
      vertex -3.008196e+002 -6.100000e+001  2.664940e+002
      vertex -3.008196e+002 -9.904597e+001  2.664940e+002
    endloop
  endfacet
  facet normal  5.901598e-001  0.000000e+000  8.072864e-001
    outer loop
      vertex -3.008196e+002 -9.904597e+001  2.664940e+002
      vertex -3.008196e+002 -6.100000e+001  2.664940e+002
      vertex -3.098190e+002 -9.904597e+001  2.730729e+002
    endloop
  endfacet
  facet normal  5.901598e-001  0.000000e+000  8.072864e-001
    outer loop
      vertex -3.098190e+002 -9.904597e+001  2.730729e+002
      vertex -3.008196e+002 -6.100000e+001  2.664940e+002
      vertex -3.008196e+002  4.531842e-011  2.664940e+002
    endloop
  endfacet
  facet normal  5.901598e-001  0.000000e+000  8.072864e-001
    outer loop
      vertex -3.098190e+002 -9.904597e+001  2.730729e+002
      vertex -3.008196e+002  4.531842e-011  2.664940e+002
      vertex -3.098190e+002  0.000000e+000  2.730729e+002
    endloop
  endfacet
  facet normal  0.000000e+000  1.000000e+000  0.000000e+000
    outer loop
      vertex -2.394313e+002 -9.904597e+001  3.693573e+002
      vertex -2.153088e+002 -9.904597e+001  3.515875e+002
      vertex -2.660500e+002 -9.904597e+001  2.894871e+002
    endloop
  endfacet
  facet normal  0.000000e+000  1.000000e+000  -0.000000e+000
    outer loop
      vertex -2.394313e+002 -9.904597e+001  3.693573e+002
      vertex -2.660500e+002 -9.904597e+001  2.894871e+002
      vertex -2.820324e+002 -9.904597e+001  2.894871e+002
    endloop
  endfacet
  facet normal  0.000000e+000  1.000000e+000  -0.000000e+000
    outer loop
      vertex -2.394313e+002 -9.904597e+001  3.693573e+002
      vertex -2.820324e+002 -9.904597e+001  2.894871e+002
      vertex -3.008196e+002 -9.904597e+001  2.664940e+002
    endloop
  endfacet
  facet normal  0.000000e+000  1.000000e+000  -0.000000e+000
    outer loop
      vertex -2.394313e+002 -9.904597e+001  3.693573e+002
      vertex -3.008196e+002 -9.904597e+001  2.664940e+002
      vertex -3.098190e+002 -9.904597e+001  2.730729e+002
    endloop
  endfacet
  facet normal  0.000000e+000  1.000000e+000  0.000000e+000
    outer loop
      vertex -2.394313e+002 -9.904597e+001  3.969875e+002
      vertex -1.998950e+002 -9.904597e+001  3.680849e+002
      vertex -2.078758e+002 -9.904597e+001  3.600921e+002
    endloop
  endfacet
  facet normal  0.000000e+000  1.000000e+000  0.000000e+000
    outer loop
      vertex -2.394313e+002 -9.904597e+001  3.969875e+002
      vertex -2.078758e+002 -9.904597e+001  3.600921e+002
      vertex -2.153088e+002 -9.904597e+001  3.515875e+002
    endloop
  endfacet
  facet normal  0.000000e+000  1.000000e+000  0.000000e+000
    outer loop
      vertex -2.394313e+002 -9.904597e+001  3.969875e+002
      vertex -2.153088e+002 -9.904597e+001  3.515875e+002
      vertex -2.394313e+002 -9.904597e+001  3.693573e+002
    endloop
  endfacet
  facet normal  8.072870e-001  0.000000e+000 -5.901591e-001
    outer loop
      vertex -2.394313e+002  0.000000e+000  3.693573e+002
      vertex -2.394313e+002 -9.904597e+001  3.693573e+002
      vertex -3.098190e+002  0.000000e+000  2.730729e+002
    endloop
  endfacet
  facet normal  8.072870e-001  0.000000e+000 -5.901591e-001
    outer loop
      vertex -3.098190e+002  0.000000e+000  2.730729e+002
      vertex -2.394313e+002 -9.904597e+001  3.693573e+002
      vertex -3.098190e+002 -9.904597e+001  2.730729e+002
    endloop
  endfacet
  facet normal  1.000000e+000  0.000000e+000  0.000000e+000
    outer loop
      vertex -2.394313e+002 -9.904597e+001  3.693573e+002
      vertex -2.394313e+002  0.000000e+000  3.693573e+002
      vertex -2.394313e+002 -9.904597e+001  3.969875e+002
    endloop
  endfacet
  facet normal  1.000000e+000  -0.000000e+000  0.000000e+000
    outer loop
      vertex -2.394313e+002 -9.904597e+001  3.969875e+002
      vertex -2.394313e+002  0.000000e+000  3.693573e+002
      vertex -2.394313e+002 -7.494652e+001  3.969875e+002
    endloop
  endfacet
  facet normal  1.000000e+000  0.000000e+000  0.000000e+000
    outer loop
      vertex -2.394313e+002  0.000000e+000  3.693573e+002
      vertex -2.394313e+002  0.000000e+000  4.368648e+002
      vertex -2.394313e+002 -7.494652e+001  3.969875e+002
    endloop
  endfacet
  facet normal  9.999999e-001  0.000000e+000  0.000000e+000
    outer loop
      vertex -2.394313e+002 -7.494652e+001  3.969875e+002
      vertex -2.394313e+002  0.000000e+000  4.368648e+002
      vertex -2.394313e+002 -7.494652e+001  4.368648e+002
    endloop
  endfacet
  facet normal  6.476625e-001  0.000000e+000 -7.619274e-001
    outer loop
      vertex -2.236189e+002  0.000000e+000  4.503059e+002
      vertex -2.236189e+002 -7.494652e+001  4.503059e+002
      vertex -2.394313e+002  0.000000e+000  4.368648e+002
    endloop
  endfacet
  facet normal  6.476625e-001  0.000000e+000 -7.619274e-001
    outer loop
      vertex -2.394313e+002  0.000000e+000  4.368648e+002
      vertex -2.236189e+002 -7.494652e+001  4.503059e+002
      vertex -2.394313e+002 -7.494652e+001  4.368648e+002
    endloop
  endfacet
  facet normal  0.000000e+000  0.000000e+000 -1.000000e+000
    outer loop
      vertex -2.013310e+002  0.000000e+000  4.503059e+002
      vertex -2.013310e+002 -7.494652e+001  4.503059e+002
      vertex -2.236189e+002  0.000000e+000  4.503059e+002
    endloop
  endfacet
  facet normal  0.000000e+000  0.000000e+000 -1.000000e+000
    outer loop
      vertex -2.236189e+002  0.000000e+000  4.503059e+002
      vertex -2.013310e+002 -7.494652e+001  4.503059e+002
      vertex -2.236189e+002 -7.494652e+001  4.503059e+002
    endloop
  endfacet
  facet normal  8.477092e-001  0.000000e+000 -5.304612e-001
    outer loop
      vertex -1.760038e+002  0.000000e+000  4.907802e+002
      vertex -1.760038e+002 -7.494652e+001  4.907802e+002
      vertex -2.013310e+002  0.000000e+000  4.503059e+002
    endloop
  endfacet
  facet normal  8.477092e-001  0.000000e+000 -5.304612e-001
    outer loop
      vertex -2.013310e+002  0.000000e+000  4.503059e+002
      vertex -1.760038e+002 -7.494652e+001  4.907802e+002
      vertex -2.013310e+002 -7.494652e+001  4.503059e+002
    endloop
  endfacet
endsolid CATIA STL
